<?xml version="1.0" encoding="UTF-8"?>
<svg id="Layer_1" xmlns="http://www.w3.org/2000/svg" version="1.1" viewBox="0 0 281.22 371.02">
  <!-- Generator: Adobe Illustrator 30.1.0, SVG Export Plug-In . SVG Version: 2.1.1 Build 136)  -->
  <defs>
    <style>
      .st0 {
        fill: none;
        stroke: #d4b896;
        stroke-miterlimit: 10;
        stroke-width: .5px;
      }

      .st1 {
        fill: #d4b896;
      }
    </style>
  </defs>
  <g>
    <path class="st1" d="M267.3,275.02c-1.08.82-6.29,4.26-14.75,10.47-7.33,5.38-124.41,77.3-127.58,79.32-11.33,7.54-23.03,7.33-31.96,2.68-1.38-.73-5.25-3.01-6.68-9.95-.74-9.15-2.46-43.35,1.58-69.41.99-6.44,6.49-9.48,8.15-10.65,12.28-7.65,21.78-13.31,26.77-16.35,1.49-.91,4.72-2.88,8.06-1.91,1.48.43,2.21,1.35,2.57,1.72.86.85,2.03,11.61,2.83,26.52.04.66.12,1.34.31,1.98.76,2.67,2.1,2.76,3.05,2.84,10.19.87,55.17-28.96,63.63-34.59.93-.75,6.23-4.82,5.83-10.65-.45-6.78-13.88-12.65-23.25-19.7-2.79-2.1-2.68-5.45-2.46-6.59,1.23-6.36,19.97-16.73,28.72-20.41,4.25-1.79,3.88-1.43,6.57-1.38,12.83.22,27.39,11.1,30.12,13.76,8.7,8.51,11.09,11.85,11.32,12.15,3.21,4.14,6.2,7.16,17.36,25.58,6.73,11.1,3.75,13.79-10.18,24.56Z"/>
    <path class="st1" d="M259.53,90.67c8.4,14.26,7.76,27.9,7.58,30.8-.74,11.36-5.03,19.45-6.99,23.06-3.36,6.16-9.07,12.92-13.17,15.97h-.27c-49.39,29.35-111.5,66.62-180.49,106.88-5.15,3.01-11.97,5.95-11.97,12.98v.2l-.93,52.86c-.04,1.9-.54,3.78-1.59,5.36-.98,1.47-2.29,2.68-3.83,3.53-1.66.89-3.91,1.81-5.63,1.43-9.98-2.25-20.36-7.31-26.04-12.4-5.91-5.31-9.66-11.18-12.07-16.28-2.39-5.11-3.42-9.43-3.87-11.63V53.07c.93-3.48,3.06-18.58,16.88-28.49,3.55-2.7,7.89-5.61,13.02-8.34,3.97-2.11,7.72-3.75,11.14-5.04.47-.11,5.02-1.03,8.61,2.17,1.41,1.25,2.19,2.71,2.62,3.95.44,1.25.53,2.26.56,2.62l.92,180.49c.03,3.55-1.66,9.18,3.78,9.18.92,0,2.07-.17,3.46-.54l125.64-74.83c11.36-7.93,17.98-9.95,16.72-18.25-1.3-8.53-36.48-24.2-47.44-30.07l-11.57-5.42c-2.72-.78-4.28-1.95-6.12.78-1.35,2.22-1.34,4.41-1.26,5.33-.3,5.14-.24,9.71-.17,15.26.07,5.91-.05,11.79-.1,17.65-.03,3.44-.6,6.88-1.84,10.1-1.03,2.64-2.66,5.67-5.48,8.92-5.05,5.82-16.31,13.81-32.14,21.15q-.77.35-2.45.64c-.32.06-.65.09-.9-.02-3.63-1.49-5.49-3.97-6.44-6.08-.94-2.11-.99-3.85-.99-3.85l-.96-129.97c-.12-.83-.41-8.54,5.05-14.86,1.5-1.73,3.21-2.87,4.77-3.64,2.18-1.06,4.59-1.57,7.02-1.63,2.58-.07,5.85.18,9.44,1.26,4.55,1.37,7.61,3.51,8.17,3.88,1.19.79,11.29,6.46,31.69,17.77,20.42,11.32,51.14,28.26,93.57,51.6,4.66,2.71,9.38,7.95,14.06,15.9Z"/>
  </g>
  <g>
    <path class="st0" d="M246.95,160.51c4.1-3.06,9.81-9.81,13.17-15.97,1.96-3.61,6.25-11.7,6.99-23.06.18-2.9.82-16.55-7.58-30.8-4.68-7.94-9.4-13.18-14.06-15.9-42.43-23.34-73.15-40.28-93.57-51.6-20.41-11.32-30.5-16.99-31.69-17.77-.56-.37-3.61-2.51-8.17-3.88-3.59-1.08-6.86-1.33-9.44-1.26-2.43.06-4.84.57-7.02,1.63-1.57.77-3.28,1.91-4.77,3.64-5.47,6.32-5.17,14.03-5.05,14.86l.96,129.97s.05,1.74.99,3.85c.95,2.12,2.81,4.6,6.44,6.08.25.11.59.08.9.02q1.68-.29,2.45-.64c15.82-7.34,27.08-15.33,32.14-21.15,2.81-3.25,4.45-6.28,5.48-8.92,1.24-3.22,1.81-6.66,1.84-10.1.05-5.86.16-11.74.1-17.65-.07-5.56-.12-10.13.17-15.26-.08-.92-.1-3.1,1.26-5.33,1.84-2.72,3.4-1.55,6.12-.78l11.57,5.42c10.96,5.86,46.14,21.54,47.44,30.07,1.26,8.31-5.36,10.32-16.72,18.25l-125.64,74.83c-1.39.36-2.54.54-3.46.54-5.44,0-3.75-5.62-3.78-9.18l-.92-180.49c-.03-.35-.12-1.37-.56-2.62-.43-1.24-1.21-2.7-2.62-3.95-3.58-3.19-8.14-2.27-8.61-2.17-3.42,1.29-7.18,2.93-11.14,5.04-5.13,2.73-9.46,5.63-13.02,8.34C3.31,34.49,1.18,49.6.25,53.07v250.37c.45,2.2,1.48,6.53,3.87,11.63,2.4,5.1,6.16,10.97,12.07,16.28,5.68,5.09,16.05,10.15,26.04,12.4,1.72.38,3.97-.54,5.63-1.43,1.55-.84,2.85-2.06,3.83-3.53,1.06-1.58,1.56-3.46,1.59-5.36l.93-52.86v-.2c0-7.03,6.82-9.97,11.97-12.98,68.99-40.26,131.1-77.53,180.49-106.88"/>
    <path class="st0" d="M86.33,357.55c-.74-9.15-2.46-43.35,1.58-69.41.99-6.44,6.49-9.48,8.15-10.65,12.28-7.65,21.78-13.31,26.77-16.35,1.49-.91,4.72-2.88,8.06-1.91,1.48.43,2.21,1.35,2.57,1.72.86.85,2.03,11.61,2.83,26.52.04.66.12,1.34.31,1.98.76,2.67,2.1,2.76,3.05,2.84,10.19.87,55.17-28.96,63.63-34.59.93-.75,6.23-4.82,5.83-10.65-.45-6.78-13.88-12.65-23.25-19.7-2.79-2.1-2.68-5.45-2.46-6.59,1.23-6.36,19.97-16.73,28.72-20.41,4.25-1.79,3.88-1.43,6.57-1.38,12.83.22,27.39,11.1,30.12,13.76,8.7,8.51,11.09,11.85,11.32,12.15,3.21,4.14,6.2,7.16,17.36,25.58,6.73,11.1,3.75,13.79-10.18,24.56-1.08.82-6.29,4.26-14.75,10.47-7.33,5.38-124.41,77.3-127.58,79.32-11.33,7.54-23.03,7.33-31.96,2.68-1.38-.73-5.25-3.01-6.68-9.95Z"/>
  </g>
</svg>